# xmcd
#
# Track frame offsets: 
#        150
#        5391
#        11469
#        25556
#        37678
#        53692
#        68039
#        80898
#        92633
#        105218
#        117694
#        131729
#        145552
#        155954
#        160915
#        163611
#        169004
#        169942
#        170314
#        171746
#        174472
#        180845
#        187346
#        196706
#        205374
#        212870
#        224324
#        238969
#        250564
#        262963
#        274640
#        286749
#        300352
#        312582
#        322213
#        327148
#
# Disc length: 4517 seconds
#
# Revision: 0
# Processed by: cddbd v1.5.2PL0 Copyright (c) Steve Scherf et al.
# Submitted via: ExactAudioCopy v0.95b3
#
DISCID=f611a324
DTITLE=The Beatles  - Live 09 - Bowled Over - Disc 2
DYEAR=1900
DGENRE=
TTITLE0=intro (Complete Hollywood Bowl)
TTITLE1=Twist And Shout (Complete Hollywood Bowl)
TTITLE2=Shes A Woman (The Complete Hollywood Bowl Concerts)
TTITLE3=I Feel Fine (Complete Hollywood Bowl)
TTITLE4=Dizzy Miss Lizzy (Complete Hollywood Bowl)
TTITLE5=Ticket To Ride (Complete Hollywood Bowl)
TTITLE6=Everybody's Trying To Be My Baby (Complete Hollywood Bowl)
TTITLE7=Cant Buy Me Love (Complete Hollywood Bowl)
TTITLE8=Babys In Black (Complete Hollywood Bowl)
TTITLE9=I Wanna Be Your Man (Complete Hollywood Bowl)
TTITLE10=A Hard Days Night (Complete Hollywood Bowl)
TTITLE11=Help! (Complete Hollywood Bowl)
TTITLE12=Im Down (Complete Hollywood Bowl)
TTITLE13=outro (The Complete Hollywood Bowl Concerts)
TTITLE14=intro (Blackpool Night Out 64 Upgraded)
TTITLE15=Twist And Shout (Blackpool Night Out 64 Upgraded)
TTITLE16=intro to dizzy miss lizzy (Blackpool Night Out 64 Upgraded)
TTITLE17=Cant Buy Me Love (Blackpool Night Out 64 Upgraded)
TTITLE18=I Wanna Be Your Man (Blackpool Night Out 64 Upgraded)
TTITLE19=A Hard Days Night (Blackpool Night Out 64 Upgraded)
TTITLE20=intro (Make As Much Noise As You Like)
TTITLE21=Twist And Shout (MAMNAYL)
TTITLE22=Shes A Woman (MAMNAYL)
TTITLE23=intro (Shea Stadium WABC TV Broadcast)
TTITLE24=Twist And Shout (Shea  WABC TV)
TTITLE25=I Feel Fine (Shea  WABC TV)
TTITLE26=Dizzy Miss Lizzy (Shea  WABC TV)
TTITLE27=Ticket To Ride (Shea  WABC TV and Anthology 2)
TTITLE28=Everybodys Trying To Be My Baby (Anthology 2 and (Shea  WABC TV
TTITLE28=)
TTITLE29=Cant Buy Me Love (Shea  WABC TV)
TTITLE30=Babys In Black (Shea  WABC TV)
TTITLE31=A Hard Days Night (Shea  WABC TV)
TTITLE32=Help! (Shea  WABC TV)
TTITLE33=I'm Down (Shea  WABC TV)
TTITLE34=outro (Shea  WABC TV) (In Montreal)
TTITLE35=Everybodys Trying To Be My Baby (stereo shea mix)
EXTD=
EXTT0=
EXTT1=
EXTT2=
EXTT3=
EXTT4=
EXTT5=
EXTT6=
EXTT7=
EXTT8=
EXTT9=
EXTT10=
EXTT11=
EXTT12=
EXTT13=
EXTT14=
EXTT15=
EXTT16=
EXTT17=
EXTT18=
EXTT19=
EXTT20=
EXTT21=
EXTT22=
EXTT23=
EXTT24=
EXTT25=
EXTT26=
EXTT27=
EXTT28=
EXTT29=
EXTT30=
EXTT31=
EXTT32=
EXTT33=
EXTT34=
EXTT35=
PLAYORDER=
